<?xml version="1.0" encoding="UTF-8" standalone="no"?>
<svg width="208.844mm" height="25.4mm"
 xmlns="http://www.w3.org/2000/svg" xmlns:xlink="http://www.w3.org/1999/xlink"  version="1.2" baseProfile="tiny">
<title>Qt SVG Document</title>
<desc>Generated with Qt</desc>
<defs>
</defs>
<g fill="none" stroke="black" stroke-width="1" fill-rule="evenodd" stroke-linecap="square" stroke-linejoin="bevel" >

<g fill="none" stroke="#000000" stroke-opacity="1" stroke-width="1" stroke-linecap="square" stroke-linejoin="bevel" transform="matrix(1,0,0,1,0,0)"
font-family="Ubuntu" font-size="11" font-weight="400" font-style="normal" 
>
</g>

<g fill="none" stroke="#000000" stroke-opacity="1" stroke-width="1" stroke-linecap="square" stroke-linejoin="bevel" transform="matrix(1,0,0,1,0,0)"
font-family="Ubuntu" font-size="11" font-weight="400" font-style="normal" 
>
</g>

<g fill="none" stroke="#000000" stroke-opacity="1" stroke-width="1" stroke-linecap="square" stroke-linejoin="bevel" transform="matrix(1.99942,0,0,1.99942,1.42067e-14,71.9791)"
font-family="Ubuntu" font-size="11" font-weight="400" font-style="normal" 
>
</g>

<g fill="#ffffff" fill-opacity="1" stroke="none" transform="matrix(1.99942,0,0,1.99942,1.42067e-14,71.9791)"
font-family="Ubuntu" font-size="11" font-weight="400" font-style="normal" 
>
<rect x="-7.10543e-15" y="-36" width="296.086" height="36"/>
</g>

<g fill="none" stroke="#000000" stroke-opacity="1" stroke-width="1" stroke-linecap="square" stroke-linejoin="bevel" transform="matrix(1.99942,0,0,1.99942,1.42067e-14,71.9791)"
font-family="Ubuntu" font-size="11" font-weight="400" font-style="normal" 
>
</g>

<g fill="none" stroke="#000000" stroke-opacity="1" stroke-width="1" stroke-linecap="square" stroke-linejoin="bevel" transform="matrix(1.99942,0,0,1.99942,1.42067e-14,71.9791)"
font-family="Ubuntu" font-size="11" font-weight="400" font-style="normal" 
>
</g>

<g fill="none" stroke="#000000" stroke-opacity="1" stroke-width="1" stroke-linecap="square" stroke-linejoin="bevel" transform="matrix(1.99942,0,0,1.99942,1.42067e-14,71.9791)"
font-family="Ubuntu" font-size="11" font-weight="400" font-style="normal" 
>
</g>

<g fill="none" stroke="#000000" stroke-opacity="1" stroke-width="1" stroke-linecap="square" stroke-linejoin="bevel" transform="matrix(1.99942,0,0,1.99942,1.42067e-14,71.9791)"
font-family="Ubuntu" font-size="11" font-weight="400" font-style="normal" 
>
</g>

<g fill="none" stroke="#000000" stroke-opacity="1" stroke-width="1" stroke-linecap="square" stroke-linejoin="round" transform="matrix(1.99942,0,0,1.99942,1.42067e-14,71.9791)"
font-family="Ubuntu" font-size="11" font-weight="400" font-style="normal" 
>
<ellipse cx="48.096" cy="-18" rx="47.596" ry="17.5"/>
</g>

<g fill="none" stroke="#000000" stroke-opacity="1" stroke-width="1" stroke-linecap="square" stroke-linejoin="bevel" transform="matrix(1.99942,0,0,1.99942,1.42067e-14,71.9791)"
font-family="Ubuntu" font-size="11" font-weight="400" font-style="normal" 
>
</g>

<g fill="none" stroke="#000000" stroke-opacity="1" stroke-width="1" stroke-linecap="square" stroke-linejoin="bevel" transform="matrix(1.99942,0,0,1.99942,37.1656,22.9933)"
font-family="Ubuntu" font-size="11" font-weight="400" font-style="normal" 
>
</g>

<g fill="none" stroke="#000000" stroke-opacity="1" stroke-width="1" stroke-linecap="square" stroke-linejoin="bevel" transform="matrix(1.99942,0,0,1.99942,37.1656,22.9933)"
font-family="sans" font-size="11" font-weight="100" font-style="normal" 
>
</g>

<g fill="#000000" fill-opacity="1" stroke="#000000" stroke-opacity="1" stroke-width="1" stroke-linecap="square" stroke-linejoin="round" transform="matrix(1.99942,0,0,1.99942,37.1656,22.9933)"
font-family="sans" font-size="11" font-weight="100" font-style="normal" 
>
<path vector-effect="none" fill-rule="nonzero" d="M2.96875,1.98438 L3.53125,1.98438 L0.734375,11.0156 L0.171875,11.0156 L2.96875,1.98438 M5.71875,4.90625 C5.30208,5.32292 5.09375,6.02083 5.09375,7 C5.09375,7.97917 5.30208,8.67708 5.71875,9.09375 C6.13542,9.51042 6.57292,9.71875 7.03125,9.71875 C7.47917,9.71875 7.91146,9.51042 8.32812,9.09375 C8.73438,8.67708 8.9375,7.97917 8.9375,7 C8.9375,6.02083 8.73438,5.32292 8.32812,4.90625 C7.91146,4.48958 7.47917,4.28125 7.03125,4.28125 C6.57292,4.28125 6.13542,4.48958 5.71875,4.90625 M8.95312,8.64062 C8.72396,9.16146 8.47396,9.51562 8.20312,9.70312 C7.80729,10.0052 7.42708,10.1562 7.0625,10.1562 C6.35417,10.1562 5.76302,9.86719 5.28906,9.28906 C4.8151,8.71094 4.57812,7.94792 4.57812,7 C4.57812,6.05208 4.8151,5.28906 5.28906,4.71094 C5.76302,4.13281 6.35417,3.84375 7.0625,3.84375 C7.42708,3.84375 7.80729,3.98958 8.20312,4.28125 C8.47396,4.47917 8.72396,4.83854 8.95312,5.35938 L8.95312,3.98438 L9.42188,3.98438 L9.42188,12.2812 L8.95312,12.2812 L8.95312,8.64062 M12.4375,2.28125 L12.4375,3.98438 L14.4688,3.98438 L14.4688,4.40625 L12.4375,4.40625 L12.4375,8.01562 C12.4375,8.47396 12.4948,8.79688 12.6094,8.98438 C12.8594,9.38021 13.2188,9.57812 13.6875,9.57812 L14.4688,9.57812 L14.4688,10 L13.7031,10 C13.2135,10 12.7969,9.85677 12.4531,9.57031 C12.1094,9.28385 11.9375,8.76562 11.9375,8.01562 L11.9375,4.40625 L11.2188,4.40625 L11.2188,3.98438 L11.9375,3.98438 L11.9375,2.28125 L12.4375,2.28125 M20.2344,6.92188 C20.2344,6.08854 20.0651,5.44271 19.7266,4.98438 C19.388,4.52604 18.9115,4.29688 18.2969,4.29688 C17.6927,4.29688 17.2214,4.52604 16.8828,4.98438 C16.5443,5.44271 16.375,6.08854 16.375,6.92188 C16.375,7.75521 16.5443,8.40104 16.8828,8.85938 C17.2214,9.31771 17.6927,9.54688 18.2969,9.54688 C18.9115,9.54688 19.388,9.31771 19.7266,8.85938 C20.0651,8.40104 20.2344,7.75521 20.2344,6.92188 M20.7188,9.25 C20.7188,10.5 20.4818,11.3177 20.0078,11.7031 C19.5339,12.0885 18.9323,12.2812 18.2031,12.2812 C17.849,12.2812 17.5208,12.2604 17.2188,12.2188 C16.9062,12.1562 16.6042,12.0729 16.3125,11.9688 L16.3125,11.4062 C16.6042,11.5625 16.8906,11.6797 17.1719,11.7578 C17.4531,11.8359 17.7448,11.875 18.0469,11.875 C18.6406,11.875 19.1536,11.7474 19.5859,11.4922 C20.0182,11.237 20.2344,10.5521 20.2344,9.4375 L20.2344,8.48438 C20.0781,8.90104 19.875,9.22917 19.625,9.46875 C19.2292,9.82292 18.7865,10 18.2969,10 C17.5365,10 16.9427,9.73177 16.5156,9.19531 C16.0885,8.65885 15.875,7.90104 15.875,6.92188 C15.875,5.94271 16.0885,5.1849 16.5156,4.64844 C16.9427,4.11198 17.5365,3.84375 18.2969,3.84375 C18.7865,3.84375 19.2031,3.99479 19.5469,4.29688 C19.8177,4.53646 20.0469,4.85938 20.2344,5.26562 L20.2344,3.98438 L20.7188,3.98438 L20.7188,9.25 M22.7656,7.60938 L22.7656,3.98438 L23.25,3.98438 L23.25,7.57812 C23.25,8.35938 23.375,8.90885 23.625,9.22656 C23.875,9.54427 24.2448,9.70312 24.7344,9.70312 C25.3073,9.70312 25.7969,9.53125 26.2031,9.1875 C26.6094,8.84375 26.8125,8.24479 26.8125,7.39062 L26.8125,3.98438 L27.2969,3.98438 L27.2969,10 L26.8125,10 L26.8125,8.875 C26.6354,9.23958 26.401,9.51562 26.1094,9.70312 C25.6927,9.99479 25.2292,10.1406 24.7188,10.1406 C24.125,10.1406 23.651,9.9375 23.2969,9.53125 C22.9427,9.13542 22.7656,8.49479 22.7656,7.60938 M29.7812,3.98438 L30.2812,3.98438 L30.2812,10 L29.7812,10 L29.7812,3.98438 M29.7812,1.64062 L30.2812,1.64062 L30.2812,2.3125 L29.7812,2.3125 L29.7812,1.64062 M37.3906,6.375 L37.3906,10 L36.8906,10 L36.8906,6.40625 C36.8906,5.625 36.7656,5.07552 36.5156,4.75781 C36.2656,4.4401 35.8958,4.28125 35.4062,4.28125 C34.8333,4.28125 34.349,4.45312 33.9531,4.79688 C33.5365,5.14062 33.3281,5.73958 33.3281,6.59375 L33.3281,10 L32.8438,10 L32.8438,3.98438 L33.3281,3.98438 L33.3281,5.10938 C33.5052,4.74479 33.7396,4.46875 34.0312,4.28125 C34.4479,3.98958 34.9115,3.84375 35.4219,3.84375 C36.026,3.84375 36.5052,4.04688 36.8594,4.45312 C37.2135,4.84896 37.3906,5.48958 37.3906,6.375 M43.3906,5.01562 C43.0365,4.52604 42.5521,4.28125 41.9375,4.28125 C41.3229,4.28125 40.8385,4.52604 40.4844,5.01562 C40.1302,5.49479 39.9531,6.15104 39.9531,6.98438 C39.9531,7.83854 40.1302,8.51042 40.4844,9 C40.8385,9.48958 41.3229,9.73438 41.9375,9.73438 C42.5521,9.73438 43.0365,9.48958 43.3906,9 C43.7448,8.5 43.9219,7.82812 43.9219,6.98438 C43.9219,6.16146 43.7448,5.50521 43.3906,5.01562 M41.9375,3.84375 C42.6979,3.84375 43.3021,4.13021 43.75,4.70312 C44.1979,5.27604 44.4219,6.03646 44.4219,6.98438 C44.4219,7.97396 44.1979,8.75521 43.75,9.32812 C43.3021,9.90104 42.6979,10.1875 41.9375,10.1875 C41.1562,10.1875 40.5417,9.90104 40.0938,9.32812 C39.6562,8.75521 39.4375,7.97396 39.4375,6.98438 C39.4375,6.02604 39.6615,5.26302 40.1094,4.69531 C40.5573,4.1276 41.1667,3.84375 41.9375,3.84375 M50.5312,5.35938 L50.5312,1.64062 L51,1.64062 L51,10 L50.5312,10 L50.5312,8.64062 C50.3021,9.16146 50.0521,9.51562 49.7812,9.70312 C49.3854,10.0052 49.0052,10.1562 48.6406,10.1562 C47.9323,10.1562 47.3411,9.86719 46.8672,9.28906 C46.3932,8.71094 46.1562,7.94792 46.1562,7 C46.1562,6.05208 46.3932,5.28906 46.8672,4.71094 C47.3411,4.13281 47.9323,3.84375 48.6406,3.84375 C49.0052,3.84375 49.3854,3.98958 49.7812,4.28125 C50.0521,4.47917 50.3021,4.83854 50.5312,5.35938 M47.2969,4.90625 C46.8802,5.32292 46.6719,6.02083 46.6719,7 C46.6719,7.97917 46.8802,8.67708 47.2969,9.09375 C47.7135,9.51042 48.151,9.71875 48.6094,9.71875 C49.0573,9.71875 49.4896,9.51042 49.9062,9.09375 C50.3125,8.67708 50.5156,7.97917 50.5156,7 C50.5156,6.02083 50.3125,5.32292 49.9062,4.90625 C49.4896,4.48958 49.0573,4.28125 48.6094,4.28125 C48.151,4.28125 47.7135,4.48958 47.2969,4.90625 M58.1875,6.75 L58.1875,7.0625 L53.625,7.0625 C53.625,8.02083 53.8125,8.69792 54.1875,9.09375 C54.6042,9.52083 55.2188,9.73438 56.0312,9.73438 C56.25,9.73438 56.5365,9.6875 56.8906,9.59375 C57.2448,9.5 57.599,9.35938 57.9531,9.17188 L57.9531,9.6875 C57.599,9.84375 57.237,9.96094 56.8672,10.0391 C56.4974,10.1172 56.2031,10.1562 55.9844,10.1562 C55.0573,10.1562 54.3594,9.90625 53.8906,9.40625 C53.3802,8.875 53.125,8.09375 53.125,7.0625 C53.125,5.98958 53.3542,5.1875 53.8125,4.65625 C54.2917,4.11458 54.9583,3.84375 55.8125,3.84375 C56.5938,3.84375 57.1875,4.10417 57.5938,4.625 C57.9896,5.16667 58.1875,5.875 58.1875,6.75 M57.6875,6.64062 C57.6875,5.79688 57.4948,5.18229 57.1094,4.79688 C56.7969,4.45312 56.3646,4.28125 55.8125,4.28125 C55.2188,4.28125 54.7188,4.45833 54.3125,4.8125 C53.9375,5.14583 53.7135,5.75521 53.6406,6.64062 L57.6875,6.64062"/>
</g>

<g fill="none" stroke="#000000" stroke-opacity="1" stroke-width="1" stroke-linecap="square" stroke-linejoin="bevel" transform="matrix(1.99942,0,0,1.99942,37.1656,22.9933)"
font-family="sans" font-size="11" font-weight="100" font-style="normal" 
>
</g>

<g fill="none" stroke="#000000" stroke-opacity="1" stroke-width="1" stroke-linecap="square" stroke-linejoin="bevel" transform="matrix(1.99942,0,0,1.99942,37.1656,22.9933)"
font-family="Ubuntu" font-size="11" font-weight="400" font-style="normal" 
>
</g>

<g fill="none" stroke="#000000" stroke-opacity="1" stroke-width="1" stroke-linecap="square" stroke-linejoin="bevel" transform="matrix(1.99942,0,0,1.99942,1.42067e-14,71.9791)"
font-family="Ubuntu" font-size="11" font-weight="400" font-style="normal" 
>
</g>

<g fill="none" stroke="#000000" stroke-opacity="1" stroke-width="1" stroke-linecap="square" stroke-linejoin="bevel" transform="matrix(1.99942,0,0,1.99942,1.42067e-14,71.9791)"
font-family="Ubuntu" font-size="11" font-weight="400" font-style="normal" 
>
</g>

<g fill="none" stroke="#000000" stroke-opacity="1" stroke-width="1" stroke-linecap="square" stroke-linejoin="bevel" transform="matrix(1.99942,0,0,1.99942,1.42067e-14,71.9791)"
font-family="Ubuntu" font-size="11" font-weight="400" font-style="normal" 
>
</g>

<g fill="none" stroke="#000000" stroke-opacity="1" stroke-width="1" stroke-linecap="square" stroke-linejoin="round" transform="matrix(1.99942,0,0,1.99942,1.42067e-14,71.9791)"
font-family="Ubuntu" font-size="11" font-weight="400" font-style="normal" 
>
<ellipse cx="242.14" cy="-18" rx="53.446" ry="17.5"/>
</g>

<g fill="none" stroke="#000000" stroke-opacity="1" stroke-width="1" stroke-linecap="square" stroke-linejoin="bevel" transform="matrix(1.99942,0,0,1.99942,1.42067e-14,71.9791)"
font-family="Ubuntu" font-size="11" font-weight="400" font-style="normal" 
>
</g>

<g fill="none" stroke="#000000" stroke-opacity="1" stroke-width="1" stroke-linecap="square" stroke-linejoin="bevel" transform="matrix(1.99942,0,0,1.99942,417.706,22.9933)"
font-family="Ubuntu" font-size="11" font-weight="400" font-style="normal" 
>
</g>

<g fill="none" stroke="#000000" stroke-opacity="1" stroke-width="1" stroke-linecap="square" stroke-linejoin="bevel" transform="matrix(1.99942,0,0,1.99942,417.706,22.9933)"
font-family="sans" font-size="11" font-weight="100" font-style="normal" 
>
</g>

<g fill="#000000" fill-opacity="1" stroke="#000000" stroke-opacity="1" stroke-width="1" stroke-linecap="square" stroke-linejoin="round" transform="matrix(1.99942,0,0,1.99942,417.706,22.9933)"
font-family="sans" font-size="11" font-weight="100" font-style="normal" 
>
<path vector-effect="none" fill-rule="nonzero" d="M2.96875,1.98438 L3.53125,1.98438 L0.734375,11.0156 L0.171875,11.0156 L2.96875,1.98438 M8.35938,4.15625 L8.35938,4.70312 C8.00521,4.50521 7.78646,4.39583 7.70312,4.375 C7.45312,4.32292 7.14062,4.29167 6.76562,4.28125 C6.20312,4.28125 5.76042,4.39062 5.4375,4.60938 C5.1875,4.79688 5.0625,5.11458 5.0625,5.5625 C5.0625,5.875 5.18229,6.11458 5.42188,6.28125 C5.66146,6.46875 6.01042,6.61458 6.46875,6.71875 L6.8125,6.78125 C7.38542,6.90625 7.81771,7.08333 8.10938,7.3125 C8.45312,7.58333 8.63021,7.92708 8.64062,8.34375 C8.64062,8.90625 8.47396,9.34896 8.14062,9.67188 C7.78646,9.99479 7.20833,10.1562 6.40625,10.1562 C5.96875,10.1562 5.63542,10.125 5.40625,10.0625 C5.125,9.98958 4.83333,9.89583 4.53125,9.78125 L4.53125,9.15625 C4.96875,9.40625 5.25,9.55208 5.375,9.59375 C5.72917,9.6875 6.08333,9.73438 6.4375,9.73438 C7.01042,9.73438 7.4375,9.61458 7.71875,9.375 C8,9.125 8.14062,8.80729 8.14062,8.42188 C8.14062,8.08854 8.04688,7.84896 7.85938,7.70312 C7.58854,7.48438 7.16146,7.30729 6.57812,7.17188 L6.23438,7.09375 C5.72396,6.96875 5.33854,6.80208 5.07812,6.59375 C4.74479,6.32292 4.57812,5.99479 4.57812,5.60938 C4.57812,4.98438 4.77865,4.53385 5.17969,4.25781 C5.58073,3.98177 6.07292,3.84375 6.65625,3.84375 C7.15625,3.84375 7.5,3.86979 7.6875,3.92188 C7.91667,3.98438 8.14062,4.0625 8.35938,4.15625 M15.3594,6.75 L15.3594,7.0625 L10.7969,7.0625 C10.7969,8.02083 10.9844,8.69792 11.3594,9.09375 C11.776,9.52083 12.3906,9.73438 13.2031,9.73438 C13.4219,9.73438 13.7083,9.6875 14.0625,9.59375 C14.4167,9.5 14.7708,9.35938 15.125,9.17188 L15.125,9.6875 C14.7708,9.84375 14.4089,9.96094 14.0391,10.0391 C13.6693,10.1172 13.375,10.1562 13.1562,10.1562 C12.2292,10.1562 11.5312,9.90625 11.0625,9.40625 C10.5521,8.875 10.2969,8.09375 10.2969,7.0625 C10.2969,5.98958 10.526,5.1875 10.9844,4.65625 C11.4635,4.11458 12.1302,3.84375 12.9844,3.84375 C13.7656,3.84375 14.3594,4.10417 14.7656,4.625 C15.1615,5.16667 15.3594,5.875 15.3594,6.75 M14.8594,6.64062 C14.8594,5.79688 14.6667,5.18229 14.2812,4.79688 C13.9688,4.45312 13.5365,4.28125 12.9844,4.28125 C12.3906,4.28125 11.8906,4.45833 11.4844,4.8125 C11.1094,5.14583 10.8854,5.75521 10.8125,6.64062 L14.8594,6.64062 M20.7031,4.40625 C20.6198,4.36458 20.5104,4.33333 20.375,4.3125 C20.25,4.29167 20.099,4.28125 19.9219,4.28125 C19.3073,4.28125 18.8021,4.50521 18.4062,4.95312 C18.0833,5.31771 17.9219,5.94271 17.9219,6.82812 L17.9219,10 L17.4375,10 L17.4375,3.98438 L17.9219,3.98438 L17.9219,5.10938 C18.0885,4.78646 18.3177,4.51562 18.6094,4.29688 C19.0052,3.99479 19.474,3.84375 20.0156,3.84375 C20.1615,3.84375 20.2865,3.84896 20.3906,3.85938 C20.4948,3.85938 20.599,3.86979 20.7031,3.89062 L20.7031,4.40625 M21.9375,3.98438 L22.4375,3.98438 L22.4375,10 L21.9375,10 L21.9375,3.98438 M21.9375,1.64062 L22.4375,1.64062 L22.4375,2.3125 L21.9375,2.3125 L21.9375,1.64062 M27.4062,6.60938 C26.6042,6.60938 26.0286,6.75 25.6797,7.03125 C25.3307,7.3125 25.1562,7.72396 25.1562,8.26562 C25.1562,8.79688 25.3021,9.17448 25.5938,9.39844 C25.8854,9.6224 26.2292,9.73438 26.625,9.73438 C27.375,9.73438 27.9167,9.41667 28.25,8.78125 C28.5833,8.13542 28.75,7.53125 28.75,6.96875 L28.75,6.60938 L27.4062,6.60938 M29.25,6.5625 L29.25,10 L28.75,10 L28.75,8.35938 C28.4792,9.16146 28.1146,9.67188 27.6562,9.89062 C27.3021,10.0677 26.9427,10.1562 26.5781,10.1562 C25.9844,10.1562 25.5156,9.99479 25.1719,9.67188 C24.8281,9.34896 24.6562,8.8776 24.6562,8.25781 C24.6562,7.63802 24.8802,7.14062 25.3281,6.76562 C25.776,6.39062 26.5052,6.20312 27.5156,6.20312 L28.75,6.20312 L28.75,6.10938 C28.75,5.57812 28.5938,5.14062 28.2812,4.79688 C27.9896,4.45312 27.4948,4.28125 26.7969,4.28125 C26.4531,4.28125 26.1042,4.34375 25.75,4.46875 C25.5208,4.55208 25.2188,4.71875 24.8438,4.96875 L24.8438,4.4375 C25.1667,4.23958 25.4688,4.09896 25.75,4.01562 C26.1458,3.90104 26.526,3.84375 26.8906,3.84375 C27.6094,3.84375 28.1979,4.05729 28.6562,4.48438 C29.0521,4.84896 29.25,5.54167 29.25,6.5625 M31.7344,1.64062 L32.2188,1.64062 L32.2188,10 L31.7344,10 L31.7344,1.64062 M39.1406,12.1719 L39.1406,12.5938 L33.4219,12.5938 L33.4219,12.1719 L39.1406,12.1719 M44.8281,6.375 L44.8281,10 L44.3281,10 L44.3281,6.40625 C44.3281,5.625 44.2031,5.07552 43.9531,4.75781 C43.7031,4.4401 43.3333,4.28125 42.8438,4.28125 C42.2708,4.28125 41.7865,4.45312 41.3906,4.79688 C40.974,5.14062 40.7656,5.73958 40.7656,6.59375 L40.7656,10 L40.2812,10 L40.2812,3.98438 L40.7656,3.98438 L40.7656,5.10938 C40.9427,4.74479 41.1771,4.46875 41.4688,4.28125 C41.8854,3.98958 42.349,3.84375 42.8594,3.84375 C43.4635,3.84375 43.9427,4.04688 44.2969,4.45312 C44.651,4.84896 44.8281,5.48958 44.8281,6.375 M50.8281,5.01562 C50.474,4.52604 49.9896,4.28125 49.375,4.28125 C48.7604,4.28125 48.276,4.52604 47.9219,5.01562 C47.5677,5.49479 47.3906,6.15104 47.3906,6.98438 C47.3906,7.83854 47.5677,8.51042 47.9219,9 C48.276,9.48958 48.7604,9.73438 49.375,9.73438 C49.9896,9.73438 50.474,9.48958 50.8281,9 C51.1823,8.5 51.3594,7.82812 51.3594,6.98438 C51.3594,6.16146 51.1823,5.50521 50.8281,5.01562 M49.375,3.84375 C50.1354,3.84375 50.7396,4.13021 51.1875,4.70312 C51.6354,5.27604 51.8594,6.03646 51.8594,6.98438 C51.8594,7.97396 51.6354,8.75521 51.1875,9.32812 C50.7396,9.90104 50.1354,10.1875 49.375,10.1875 C48.5938,10.1875 47.9792,9.90104 47.5312,9.32812 C47.0938,8.75521 46.875,7.97396 46.875,6.98438 C46.875,6.02604 47.099,5.26302 47.5469,4.69531 C47.9948,4.1276 48.6042,3.84375 49.375,3.84375 M57.9688,5.35938 L57.9688,1.64062 L58.4375,1.64062 L58.4375,10 L57.9688,10 L57.9688,8.64062 C57.7396,9.16146 57.4896,9.51562 57.2188,9.70312 C56.8229,10.0052 56.4427,10.1562 56.0781,10.1562 C55.3698,10.1562 54.7786,9.86719 54.3047,9.28906 C53.8307,8.71094 53.5938,7.94792 53.5938,7 C53.5938,6.05208 53.8307,5.28906 54.3047,4.71094 C54.7786,4.13281 55.3698,3.84375 56.0781,3.84375 C56.4427,3.84375 56.8229,3.98958 57.2188,4.28125 C57.4896,4.47917 57.7396,4.83854 57.9688,5.35938 M54.7344,4.90625 C54.3177,5.32292 54.1094,6.02083 54.1094,7 C54.1094,7.97917 54.3177,8.67708 54.7344,9.09375 C55.151,9.51042 55.5885,9.71875 56.0469,9.71875 C56.4948,9.71875 56.9271,9.51042 57.3438,9.09375 C57.75,8.67708 57.9531,7.97917 57.9531,7 C57.9531,6.02083 57.75,5.32292 57.3438,4.90625 C56.9271,4.48958 56.4948,4.28125 56.0469,4.28125 C55.5885,4.28125 55.151,4.48958 54.7344,4.90625 M65.625,6.75 L65.625,7.0625 L61.0625,7.0625 C61.0625,8.02083 61.25,8.69792 61.625,9.09375 C62.0417,9.52083 62.6562,9.73438 63.4688,9.73438 C63.6875,9.73438 63.974,9.6875 64.3281,9.59375 C64.6823,9.5 65.0365,9.35938 65.3906,9.17188 L65.3906,9.6875 C65.0365,9.84375 64.6745,9.96094 64.3047,10.0391 C63.9349,10.1172 63.6406,10.1562 63.4219,10.1562 C62.4948,10.1562 61.7969,9.90625 61.3281,9.40625 C60.8177,8.875 60.5625,8.09375 60.5625,7.0625 C60.5625,5.98958 60.7917,5.1875 61.25,4.65625 C61.7292,4.11458 62.3958,3.84375 63.25,3.84375 C64.0312,3.84375 64.625,4.10417 65.0312,4.625 C65.4271,5.16667 65.625,5.875 65.625,6.75 M65.125,6.64062 C65.125,5.79688 64.9323,5.18229 64.5469,4.79688 C64.2344,4.45312 63.8021,4.28125 63.25,4.28125 C62.6562,4.28125 62.1562,4.45833 61.75,4.8125 C61.375,5.14583 61.151,5.75521 61.0781,6.64062 L65.125,6.64062"/>
</g>

<g fill="none" stroke="#000000" stroke-opacity="1" stroke-width="1" stroke-linecap="square" stroke-linejoin="bevel" transform="matrix(1.99942,0,0,1.99942,417.706,22.9933)"
font-family="sans" font-size="11" font-weight="100" font-style="normal" 
>
</g>

<g fill="none" stroke="#000000" stroke-opacity="1" stroke-width="1" stroke-linecap="square" stroke-linejoin="bevel" transform="matrix(1.99942,0,0,1.99942,417.706,22.9933)"
font-family="Ubuntu" font-size="11" font-weight="400" font-style="normal" 
>
</g>

<g fill="none" stroke="#000000" stroke-opacity="1" stroke-width="1" stroke-linecap="square" stroke-linejoin="bevel" transform="matrix(1.99942,0,0,1.99942,1.42067e-14,71.9791)"
font-family="Ubuntu" font-size="11" font-weight="400" font-style="normal" 
>
</g>

<g fill="none" stroke="#000000" stroke-opacity="1" stroke-width="1" stroke-linecap="square" stroke-linejoin="bevel" transform="matrix(1.99942,0,0,1.99942,1.42067e-14,71.9791)"
font-family="Ubuntu" font-size="11" font-weight="400" font-style="normal" 
>
</g>

<g fill="none" stroke="#000000" stroke-opacity="1" stroke-width="1" stroke-linecap="square" stroke-linejoin="bevel" transform="matrix(1.99942,0,0,1.99942,1.42067e-14,71.9791)"
font-family="Ubuntu" font-size="11" font-weight="400" font-style="normal" 
>
</g>

<g fill="none" stroke="#000000" stroke-opacity="1" stroke-width="1" stroke-linecap="square" stroke-linejoin="round" transform="matrix(1.99942,0,0,1.99942,1.42067e-14,71.9791)"
font-family="Ubuntu" font-size="11" font-weight="400" font-style="normal" 
>
<path vector-effect="none" fill-rule="evenodd" d="M96.567,-18 C121.08,-18 151.32,-18 177.8,-18 "/>
</g>

<g fill="none" stroke="#000000" stroke-opacity="1" stroke-width="1" stroke-linecap="square" stroke-linejoin="bevel" transform="matrix(1.99942,0,0,1.99942,1.42067e-14,71.9791)"
font-family="Ubuntu" font-size="11" font-weight="400" font-style="normal" 
>
</g>

<g fill="none" stroke="#000000" stroke-opacity="1" stroke-width="1" stroke-linecap="square" stroke-linejoin="bevel" transform="matrix(1.99942,0,0,1.99942,207.742,7.99768)"
font-family="Ubuntu" font-size="11" font-weight="400" font-style="normal" 
>
</g>

<g fill="none" stroke="#000000" stroke-opacity="1" stroke-width="1" stroke-linecap="square" stroke-linejoin="bevel" transform="matrix(1.99942,0,0,1.99942,207.742,7.99768)"
font-family="sans" font-size="11" font-weight="100" font-style="normal" 
>
</g>

<g fill="#000000" fill-opacity="1" stroke="#000000" stroke-opacity="1" stroke-width="1" stroke-linecap="square" stroke-linejoin="round" transform="matrix(1.99942,0,0,1.99942,207.742,7.99768)"
font-family="sans" font-size="11" font-weight="100" font-style="normal" 
>
<path vector-effect="none" fill-rule="nonzero" d="M2.96875,1.98438 L3.53125,1.98438 L0.734375,11.0156 L0.171875,11.0156 L2.96875,1.98438 M8.95312,6.92188 C8.95312,6.08854 8.78385,5.44271 8.44531,4.98438 C8.10677,4.52604 7.63021,4.29688 7.01562,4.29688 C6.41146,4.29688 5.9401,4.52604 5.60156,4.98438 C5.26302,5.44271 5.09375,6.08854 5.09375,6.92188 C5.09375,7.75521 5.26302,8.40104 5.60156,8.85938 C5.9401,9.31771 6.41146,9.54688 7.01562,9.54688 C7.63021,9.54688 8.10677,9.31771 8.44531,8.85938 C8.78385,8.40104 8.95312,7.75521 8.95312,6.92188 M9.4375,9.25 C9.4375,10.5 9.20052,11.3177 8.72656,11.7031 C8.2526,12.0885 7.65104,12.2812 6.92188,12.2812 C6.56771,12.2812 6.23958,12.2604 5.9375,12.2188 C5.625,12.1562 5.32292,12.0729 5.03125,11.9688 L5.03125,11.4062 C5.32292,11.5625 5.60938,11.6797 5.89062,11.7578 C6.17188,11.8359 6.46354,11.875 6.76562,11.875 C7.35938,11.875 7.8724,11.7474 8.30469,11.4922 C8.73698,11.237 8.95312,10.5521 8.95312,9.4375 L8.95312,8.48438 C8.79688,8.90104 8.59375,9.22917 8.34375,9.46875 C7.94792,9.82292 7.50521,10 7.01562,10 C6.25521,10 5.66146,9.73177 5.23438,9.19531 C4.80729,8.65885 4.59375,7.90104 4.59375,6.92188 C4.59375,5.94271 4.80729,5.1849 5.23438,4.64844 C5.66146,4.11198 6.25521,3.84375 7.01562,3.84375 C7.50521,3.84375 7.92188,3.99479 8.26562,4.29688 C8.53646,4.53646 8.76562,4.85938 8.95312,5.26562 L8.95312,3.98438 L9.4375,3.98438 L9.4375,9.25 M11.4844,7.60938 L11.4844,3.98438 L11.9688,3.98438 L11.9688,7.57812 C11.9688,8.35938 12.0938,8.90885 12.3438,9.22656 C12.5938,9.54427 12.9635,9.70312 13.4531,9.70312 C14.026,9.70312 14.5156,9.53125 14.9219,9.1875 C15.3281,8.84375 15.5312,8.24479 15.5312,7.39062 L15.5312,3.98438 L16.0156,3.98438 L16.0156,10 L15.5312,10 L15.5312,8.875 C15.3542,9.23958 15.1198,9.51562 14.8281,9.70312 C14.4115,9.99479 13.9479,10.1406 13.4375,10.1406 C12.8438,10.1406 12.3698,9.9375 12.0156,9.53125 C11.6615,9.13542 11.4844,8.49479 11.4844,7.60938 M18.5,3.98438 L19,3.98438 L19,10 L18.5,10 L18.5,3.98438 M18.5,1.64062 L19,1.64062 L19,2.3125 L18.5,2.3125 L18.5,1.64062 M25.6719,4.28125 L25.6719,4.79688 C25.3802,4.61979 25.1354,4.5 24.9375,4.4375 C24.6042,4.33333 24.2865,4.28125 23.9844,4.28125 C23.1198,4.28125 22.5,4.5026 22.125,4.94531 C21.75,5.38802 21.5625,6.07292 21.5625,7 C21.5625,7.9375 21.75,8.6276 22.125,9.07031 C22.5,9.51302 23.1198,9.73438 23.9844,9.73438 C24.276,9.73438 24.5573,9.69271 24.8281,9.60938 C25.1198,9.53646 25.401,9.42188 25.6719,9.26562 L25.6719,9.76562 C25.401,9.90104 25.1198,10 24.8281,10.0625 C24.526,10.125 24.2292,10.1562 23.9375,10.1562 C23.0625,10.1562 22.3646,9.91667 21.8438,9.4375 C21.3229,8.95833 21.0625,8.14323 21.0625,6.99219 C21.0625,5.84115 21.3229,5.02604 21.8438,4.54688 C22.3646,4.07812 23.0625,3.84375 23.9375,3.84375 C24.2292,3.84375 24.5365,3.88542 24.8594,3.96875 C25.1823,4.04167 25.4531,4.14583 25.6719,4.28125 M32.1562,6.375 L32.1562,10 L31.6562,10 L31.6562,6.40625 C31.6562,5.625 31.526,5.07552 31.2656,4.75781 C31.0052,4.4401 30.6094,4.28125 30.0781,4.28125 C29.4635,4.28125 28.9792,4.45833 28.625,4.8125 C28.2708,5.16667 28.0938,5.76042 28.0938,6.59375 L28.0938,10 L27.6094,10 L27.6094,1.64062 L28.0938,1.64062 L28.0938,5.09375 C28.2083,4.79167 28.4167,4.52083 28.7188,4.28125 C29.0625,3.98958 29.5521,3.84375 30.1875,3.84375 C30.7917,3.84375 31.2708,4.05729 31.625,4.48438 C31.9792,4.91146 32.1562,5.54167 32.1562,6.375 M36.9844,6.60938 C36.1823,6.60938 35.6068,6.75 35.2578,7.03125 C34.9089,7.3125 34.7344,7.72396 34.7344,8.26562 C34.7344,8.79688 34.8802,9.17448 35.1719,9.39844 C35.4635,9.6224 35.8073,9.73438 36.2031,9.73438 C36.9531,9.73438 37.4948,9.41667 37.8281,8.78125 C38.1615,8.13542 38.3281,7.53125 38.3281,6.96875 L38.3281,6.60938 L36.9844,6.60938 M38.8281,6.5625 L38.8281,10 L38.3281,10 L38.3281,8.35938 C38.0573,9.16146 37.6927,9.67188 37.2344,9.89062 C36.8802,10.0677 36.5208,10.1562 36.1562,10.1562 C35.5625,10.1562 35.0938,9.99479 34.75,9.67188 C34.4062,9.34896 34.2344,8.8776 34.2344,8.25781 C34.2344,7.63802 34.4583,7.14062 34.9062,6.76562 C35.3542,6.39062 36.0833,6.20312 37.0938,6.20312 L38.3281,6.20312 L38.3281,6.10938 C38.3281,5.57812 38.1719,5.14062 37.8594,4.79688 C37.5677,4.45312 37.0729,4.28125 36.375,4.28125 C36.0312,4.28125 35.6823,4.34375 35.3281,4.46875 C35.099,4.55208 34.7969,4.71875 34.4219,4.96875 L34.4219,4.4375 C34.7448,4.23958 35.0469,4.09896 35.3281,4.01562 C35.724,3.90104 36.1042,3.84375 36.4688,3.84375 C37.1875,3.84375 37.776,4.05729 38.2344,4.48438 C38.6302,4.84896 38.8281,5.54167 38.8281,6.5625 M41.8281,2.28125 L41.8281,3.98438 L43.8594,3.98438 L43.8594,4.40625 L41.8281,4.40625 L41.8281,8.01562 C41.8281,8.47396 41.8854,8.79688 42,8.98438 C42.25,9.38021 42.6094,9.57812 43.0781,9.57812 L43.8594,9.57812 L43.8594,10 L43.0938,10 C42.6042,10 42.1875,9.85677 41.8438,9.57031 C41.5,9.28385 41.3281,8.76562 41.3281,8.01562 L41.3281,4.40625 L40.6094,4.40625 L40.6094,3.98438 L41.3281,3.98438 L41.3281,2.28125 L41.8281,2.28125 M46.1406,2.28125 L46.1406,3.98438 L48.1719,3.98438 L48.1719,4.40625 L46.1406,4.40625 L46.1406,8.01562 C46.1406,8.47396 46.1979,8.79688 46.3125,8.98438 C46.5625,9.38021 46.9219,9.57812 47.3906,9.57812 L48.1719,9.57812 L48.1719,10 L47.4062,10 C46.9167,10 46.5,9.85677 46.1562,9.57031 C45.8125,9.28385 45.6406,8.76562 45.6406,8.01562 L45.6406,4.40625 L44.9219,4.40625 L44.9219,3.98438 L45.6406,3.98438 L45.6406,2.28125 L46.1406,2.28125 M54.625,6.75 L54.625,7.0625 L50.0625,7.0625 C50.0625,8.02083 50.25,8.69792 50.625,9.09375 C51.0417,9.52083 51.6562,9.73438 52.4688,9.73438 C52.6875,9.73438 52.974,9.6875 53.3281,9.59375 C53.6823,9.5 54.0365,9.35938 54.3906,9.17188 L54.3906,9.6875 C54.0365,9.84375 53.6745,9.96094 53.3047,10.0391 C52.9349,10.1172 52.6406,10.1562 52.4219,10.1562 C51.4948,10.1562 50.7969,9.90625 50.3281,9.40625 C49.8177,8.875 49.5625,8.09375 49.5625,7.0625 C49.5625,5.98958 49.7917,5.1875 50.25,4.65625 C50.7292,4.11458 51.3958,3.84375 52.25,3.84375 C53.0312,3.84375 53.625,4.10417 54.0312,4.625 C54.4271,5.16667 54.625,5.875 54.625,6.75 M54.125,6.64062 C54.125,5.79688 53.9323,5.18229 53.5469,4.79688 C53.2344,4.45312 52.8021,4.28125 52.25,4.28125 C51.6562,4.28125 51.1562,4.45833 50.75,4.8125 C50.375,5.14583 50.151,5.75521 50.0781,6.64062 L54.125,6.64062 M59.9688,4.40625 C59.8854,4.36458 59.776,4.33333 59.6406,4.3125 C59.5156,4.29167 59.3646,4.28125 59.1875,4.28125 C58.5729,4.28125 58.0677,4.50521 57.6719,4.95312 C57.349,5.31771 57.1875,5.94271 57.1875,6.82812 L57.1875,10 L56.7031,10 L56.7031,3.98438 L57.1875,3.98438 L57.1875,5.10938 C57.3542,4.78646 57.5833,4.51562 57.875,4.29688 C58.2708,3.99479 58.7396,3.84375 59.2812,3.84375 C59.4271,3.84375 59.5521,3.84896 59.6562,3.85938 C59.7604,3.85938 59.8646,3.86979 59.9688,3.89062 L59.9688,4.40625 M65.2188,6.92188 C65.2188,6.08854 65.0495,5.44271 64.7109,4.98438 C64.3724,4.52604 63.8958,4.29688 63.2812,4.29688 C62.6771,4.29688 62.2057,4.52604 61.8672,4.98438 C61.5286,5.44271 61.3594,6.08854 61.3594,6.92188 C61.3594,7.75521 61.5286,8.40104 61.8672,8.85938 C62.2057,9.31771 62.6771,9.54688 63.2812,9.54688 C63.8958,9.54688 64.3724,9.31771 64.7109,8.85938 C65.0495,8.40104 65.2188,7.75521 65.2188,6.92188 M65.7031,9.25 C65.7031,10.5 65.4661,11.3177 64.9922,11.7031 C64.5182,12.0885 63.9167,12.2812 63.1875,12.2812 C62.8333,12.2812 62.5052,12.2604 62.2031,12.2188 C61.8906,12.1562 61.5885,12.0729 61.2969,11.9688 L61.2969,11.4062 C61.5885,11.5625 61.875,11.6797 62.1562,11.7578 C62.4375,11.8359 62.7292,11.875 63.0312,11.875 C63.625,11.875 64.138,11.7474 64.5703,11.4922 C65.0026,11.237 65.2188,10.5521 65.2188,9.4375 L65.2188,8.48438 C65.0625,8.90104 64.8594,9.22917 64.6094,9.46875 C64.2135,9.82292 63.7708,10 63.2812,10 C62.5208,10 61.9271,9.73177 61.5,9.19531 C61.0729,8.65885 60.8594,7.90104 60.8594,6.92188 C60.8594,5.94271 61.0729,5.1849 61.5,4.64844 C61.9271,4.11198 62.5208,3.84375 63.2812,3.84375 C63.7708,3.84375 64.1875,3.99479 64.5312,4.29688 C64.8021,4.53646 65.0312,4.85938 65.2188,5.26562 L65.2188,3.98438 L65.7031,3.98438 L65.7031,9.25 M67.75,7.60938 L67.75,3.98438 L68.2344,3.98438 L68.2344,7.57812 C68.2344,8.35938 68.3594,8.90885 68.6094,9.22656 C68.8594,9.54427 69.2292,9.70312 69.7188,9.70312 C70.2917,9.70312 70.7812,9.53125 71.1875,9.1875 C71.5938,8.84375 71.7969,8.24479 71.7969,7.39062 L71.7969,3.98438 L72.2812,3.98438 L72.2812,10 L71.7969,10 L71.7969,8.875 C71.6198,9.23958 71.3854,9.51562 71.0938,9.70312 C70.6771,9.99479 70.2135,10.1406 69.7031,10.1406 C69.1094,10.1406 68.6354,9.9375 68.2812,9.53125 C67.9271,9.13542 67.75,8.49479 67.75,7.60938 M74.7656,3.98438 L75.2656,3.98438 L75.2656,10 L74.7656,10 L74.7656,3.98438 M74.7656,1.64062 L75.2656,1.64062 L75.2656,2.3125 L74.7656,2.3125 L74.7656,1.64062"/>
</g>

<g fill="none" stroke="#000000" stroke-opacity="1" stroke-width="1" stroke-linecap="square" stroke-linejoin="bevel" transform="matrix(1.99942,0,0,1.99942,207.742,7.99768)"
font-family="sans" font-size="11" font-weight="100" font-style="normal" 
>
</g>

<g fill="none" stroke="#000000" stroke-opacity="1" stroke-width="1" stroke-linecap="square" stroke-linejoin="bevel" transform="matrix(1.99942,0,0,1.99942,207.742,7.99768)"
font-family="Ubuntu" font-size="11" font-weight="400" font-style="normal" 
>
</g>

<g fill="none" stroke="#000000" stroke-opacity="1" stroke-width="1" stroke-linecap="square" stroke-linejoin="bevel" transform="matrix(1.99942,0,0,1.99942,1.42067e-14,71.9791)"
font-family="Ubuntu" font-size="11" font-weight="400" font-style="normal" 
>
</g>

<g fill="#000000" fill-opacity="1" stroke="#000000" stroke-opacity="1" stroke-width="1" stroke-linecap="square" stroke-linejoin="round" transform="matrix(1.99942,0,0,1.99942,1.42067e-14,71.9791)"
font-family="Ubuntu" font-size="11" font-weight="400" font-style="normal" 
>
<path vector-effect="none" fill-rule="evenodd" d="M177.8,-18 L177.8,-14.388 L188.12,-18 L177.8,-21.612 L177.8,-18"/>
</g>

<g fill="none" stroke="#000000" stroke-opacity="1" stroke-width="1" stroke-linecap="square" stroke-linejoin="bevel" transform="matrix(1.99942,0,0,1.99942,1.42067e-14,71.9791)"
font-family="Ubuntu" font-size="11" font-weight="400" font-style="normal" 
>
</g>

<g fill="none" stroke="#000000" stroke-opacity="1" stroke-width="1" stroke-linecap="square" stroke-linejoin="bevel" transform="matrix(1,0,0,1,0,0)"
font-family="Ubuntu" font-size="11" font-weight="400" font-style="normal" 
>
</g>
</g>
</svg>
